Patient4_TMGait_0pt6_01_left_10_EMG.mot
version=1
nRows=23
nColumns=33
inDegrees=no
endheader
time	1LAddLong	2LGlutMax	3LGlutMed	4LIliopsoas	5LSemiMemb	6LBicFemLong	7LRecFem	8LVastMed	9LVastLat	10LGasMed	11LTibAnt	12lTibPost	13LPeroneusLong	14LSol	15LExtDigLong	16LFlexDigLong	17RAddLong	18RGlutMax	19RGlutMed	20RIliopsoas	21RSemiMemb	22RBicFemLong	23RRecFem	24RVastMed	25RVastLat	26RGasMed	27RTibAnt	28RTibPost	29RPeroneusLong	30RSol	31RExtDigLong	32RFlexDigLong
13.408	0.012512	0.097656	-0.092621	0.029144	0.00946	0.010376	0.005035	0.00473	0.10788	-0.012512	0.079346	0.001373	0.080719	-0.067139	-0.040894	0.002441	0.002747	0.035095	-0.32501	0.2063	0.012665	0.019379	-0.028381	0.25146	-0.009003	-0.00473	-0.42023	-0.003052	-0.29877	0.19165	-0.002441	-0.002136
13.409	0.014954	0.085144	-0.12161	0.017853	0.018616	-0.000763	0.009155	0.009766	0.093536	-0.046844	-0.05188	0.013123	0.12924	-0.053101	-0.019531	0.006714	0.005035	-0.015564	0.007782	0.075073	0.005798	0.001984	-0.00824	0.090942	0.078735	-0.005035	-0.51697	-0.003052	-0.10178	0.20859	-0.001526	-0.000916
13.41	0.007782	0.07782	-0.1506	0.003967	0	0.008087	0.008545	0.006256	0.09964	-0.05127	-0.070343	0.002747	0.18478	-0.013123	0.056915	-0.016785	0.006104	-0.008392	0.39948	0.10254	-0.002899	0.040436	-0.043182	-0.1207	0.024872	-0.010376	0.12268	-0.002899	-0.26459	0.22125	-0.001068	-0.009918
13.411	0.005341	0.10513	-0.12314	0.012207	-0.032501	0.012665	0.026398	0.002441	0.079193	-0.046387	-0.024109	0.011902	0.10651	-0.030975	0.09964	0.002289	-0.020905	-0.050507	0.028534	0.10391	0.042267	0.034485	-0.177	-0.23544	-0.059357	-0.012512	0.72235	-0.000153	-0.32623	0.14282	-0.00473	-0.011749
13.412	0.003357	0.12177	-0.026245	0	-0.029602	0.041809	0.031281	0.010223	0.083923	-0.010071	0.003052	0.009613	0.059204	-0.047607	0.087585	-0.009155	-0.010834	-0.042267	-0.33066	-0.056458	0.015411	0.041199	-0.25207	0.043488	-0.16098	-0.006409	0.91339	-0.003204	-0.16708	0.21362	-0.005188	-0.017548
13.413	0.003815	0.10773	0.023804	0.002747	-0.056152	0.035095	0.040588	0.008698	0.078125	0.038147	0.036163	0.003204	-0.041046	-0.018005	0.091095	0.001678	-0.009308	0.057373	0.41016	-0.10651	0.003357	0.081329	-0.34164	0.080872	-0.15701	-0.010223	0.65933	-0.00412	-0.17517	0.20172	-0.002594	-0.016479
13.414	-0.001678	0.058594	-0.005951	-0.016022	-0.088196	0.021362	0.016785	0.010071	0.079193	0.017395	0.11063	-0.001984	-0.063629	-0.007629	0.066223	-0.005798	0.028687	0.049438	0.53238	0.012512	0.006561	-0.026245	-0.33188	-0.044861	-0.11551	0.000458	-0.86823	-0.001373	-0.14206	0.056152	-0.002289	-0.002899
13.415	0.009918	0.015869	-0.000458	-0.002899	-0.048981	0.014801	0.031891	0.005035	0.09079	0.004425	0.121	0.001373	-0.046387	-0.018005	0.037384	-0.000763	0.06134	0.025024	0.78796	-0.003357	-0.005798	-0.054932	-0.14328	-0.18112	-0.12344	-0.004578	-1.2024	0.006104	0.10681	-0.10788	0.00061	-0.008087
13.416	0.016327	0.017242	0.01709	0.013733	0.089264	-0.027161	0.025024	0.007629	0.092316	-0.031433	0.003357	0.023041	0.05722	-0.028839	0.14816	-0.000153	0.045166	0.039215	0.59631	-0.075073	-0.028839	-0.058746	-0.11993	-0.11383	-0.058136	0.000763	-0.73822	-0.000763	0.36209	-0.10437	0.001678	-0.01297
13.417	0.018005	-0.023041	0.049438	0.010681	0.11795	-0.052643	0.015869	0.001984	0.103	-0.042572	-0.25192	0.010681	0.12711	-0.040436	0.21591	0.010834	0.041504	0.006104	0.096283	-0.084076	-0.1503	-0.0177	-0.053253	-0.026703	-0.13733	0.002136	-0.47562	-0.000916	0.53619	-0.03891	-0.002594	-0.018616
13.418	0.018463	-0.028839	0.054321	-0.007324	0.030365	-0.036163	0.00946	0.008087	0.093384	-0.048523	-0.25574	0.004578	0.20203	-0.019379	0.12146	0.008698	0.016174	-0.012207	-0.31311	-0.068512	-0.121	0.072021	-0.1239	-0.078583	-0.063477	-0.009155	-0.63461	-0.003204	0.066833	0.046997	-0.000916	-0.006714
13.419	0.014496	-0.055695	0.040283	0.006104	0.02182	-0.037079	0.025024	0.003662	0.089569	-0.007629	-0.17487	0.002441	0.21591	-0.00946	0.086212	-0.012054	-0.020599	0.044403	-0.034485	-0.044708	0.057373	0.060425	-0.16388	-0.070648	0.079803	-0.016785	-0.41214	-0.004883	-0.37964	0.18158	0.000153	-0.007935
13.42	0.014648	-0.053253	0.045776	0.007477	0.019226	-0.028839	0.013885	0.007172	0.066986	-0.026093	0.021667	0.004272	0.1976	-0.005798	-0.15076	-0.010376	-0.018921	0.096588	-0.40161	0.048065	0.11047	0.063629	-0.1918	0.055542	0.27374	-0.011292	-0.018616	-0.002594	-0.40787	0.10498	-0.002441	-0.002136
13.421	0.00351	-0.067902	0.027466	0.027466	0.021362	-0.027008	0.02121	-0.001373	0.076752	-0.078278	0.27115	-0.00061	0.1268	0.018158	-0.002441	-0.001373	0.00061	0.098572	-0.44876	0.054932	0.12802	0.028839	0.037231	0.009003	0.11932	-0.002441	0.11505	-0.001373	-0.28076	0.005341	-0.000153	-0.015106
13.422	0.017395	-0.076904	-0.000458	0.009308	0.011749	-0.029144	0.029755	0.005951	0.076752	-0.031433	0.36102	0.011292	-0.07782	-0.052795	0.10696	0.004578	-0.012817	0.073547	0.21286	0.066071	0.033417	0.06012	-0.064087	0.055084	0.26169	-0.00824	0.094147	-0.00351	-0.22903	0.052795	0.001984	-0.006561
13.423	0.016785	-0.052032	-0.024109	0.001068	0.019379	-0.04837	0.031281	-0.001984	0.074921	-0.002899	0.18478	0.009003	-0.19363	-0.14023	0.32471	0.004883	-0.007019	0.082855	0.51727	0.068359	-0.09079	0.1001	-0.11856	0.062714	0.42557	-0.014648	0.15167	-0.003357	-0.042572	-0.013123	-0.000916	-0.006561
13.424	0.015717	-0.044098	-0.049438	0.003662	0.017242	-0.033264	0.018463	0.004425	0.075989	-0.015259	-0.048676	0.000916	-0.13107	-0.097046	0.066223	0.005341	-0.010071	0.056458	-0.65109	0.058746	-0.042877	0.14832	-0.16525	-0.057831	0.32379	-0.009766	0.33936	-0.003357	-0.14633	-0.061951	-0.001221	-0.00885
13.425	0.024567	-0.024567	-0.047302	0.011292	0.01236	-0.024567	0.036469	0.002289	0.062256	-0.024261	-0.12268	-0.00412	-0.032196	-0.067596	-0.2861	0.005493	-0.001678	0.051575	-0.72678	0.072021	0.07431	0.072021	-0.26062	-0.04425	0.17975	-0.005188	0.49652	-0.003662	0.016479	-0.069733	-0.006561	-0.00946
13.426	0.015717	-0.028687	-0.048828	0.011444	0.006104	-0.031281	0.026398	-0.000305	0.069885	-0.046082	-0.099335	0.002747	0.068817	-0.063934	-0.25207	0.003662	-0.018616	0.088501	-0.4921	0.08667	0.026093	0.094604	-0.56381	0.12253	0.12054	-0.010376	0.24368	-0.008392	-0.20309	-0.031586	-0.002899	-0.00946
13.427	0.010986	0.007324	-0.050507	0.016327	0.010681	-0.023041	0.029602	0.002747	0.073395	-0.049286	-0.065308	0.008087	0.094452	-0.037537	-0.15991	0.010834	-0.02533	0.13016	0.78064	-0.097504	0.036621	0.091858	-0.45578	0.30395	-0.035706	-0.00061	0.098267	-0.001221	-0.86472	-0.029144	-0.006714	-0.01709
13.428	0.015259	-0.003204	-0.065002	0.007629	0.007935	-0.01709	0.036926	0.008545	0.072784	-0.045166	-0.048523	0.016174	0.043335	0.011292	-0.13107	0.00946	0.006104	0.065002	0.72037	-0.16251	0.025482	0.056763	-0.065918	0.27039	-0.3862	-0.00885	0.14587	-0.005188	-0.54504	-0.019989	-0.001678	-0.00946
13.429	0.007935	-0.001221	-0.055542	0.009155	0.004578	-0.015259	0.045166	0.00351	0.06897	-0.036926	-0.050354	0.005798	-0.088348	0.016174	-0.1091	0.007629	-0.024872	0.066528	-0.44907	-0.095062	-0.039063	0.091248	0.18417	0.37201	-0.67337	-0.000763	0.19516	-0.006866	0.3064	-0.031433	0.000916	-0.014191
13.43	0.013123	0.0177	-0.061035	-0.000763	0.006714	-0.015259	0.040436	0.003662	0.070496	-0.025024	-0.006256	0.006561	-0.1947	-0.005035	-0.10681	-0.006256	-0.013428	0.086517	0.40543	-0.14252	-0.028229	0.084991	0.31204	0.3067	-0.19821	-0.00061	0.20966	-0.004272	0.7161	-0.087738	-0.001831	-0.01236
